<svg width="1826" height="1825" xmlns="http://www.w3.org/2000/svg" xmlns:xlink="http://www.w3.org/1999/xlink" xml:space="preserve" overflow="hidden"><defs><clipPath id="clip0"><rect x="1287" y="325" width="1826" height="1825"/></clipPath></defs><g clip-path="url(#clip0)" transform="translate(-1287 -325)"><path d="M1287 629.174C1287 461.183 1423.18 325 1591.17 325L2808.83 325C2976.82 325 3113 461.183 3113 629.174L3113 1845.83C3113 2013.82 2976.82 2150 2808.83 2150L1591.17 2150C1423.18 2150 1287 2013.82 1287 1845.83Z" fill="#F2F2F2" fill-rule="evenodd"/><path d="M1468 702.959C1468 607.989 1544.99 531 1639.96 531L1984.04 531C2079.01 531 2156 607.989 2156 702.959L2156 1047.04C2156 1142.01 2079.01 1219 1984.04 1219L1639.96 1219C1544.99 1219 1468 1142.01 1468 1047.04Z" fill="#D9D9D9" fill-rule="evenodd"/><path d="M2244 702.959C2244 607.989 2320.99 531 2415.96 531L2760.04 531C2855.01 531 2932 607.989 2932 702.959L2932 1047.04C2932 1142.01 2855.01 1219 2760.04 1219L2415.96 1219C2320.99 1219 2244 1142.01 2244 1047.04Z" fill="#D9D9D9" fill-rule="evenodd"/><path d="M1984.29 1307C2079.12 1307 2156 1383.88 2156 1478.71L2156 1822.29C2156 1917.12 2079.12 1994 1984.29 1994L1639.71 1994C1544.88 1994 1468 1917.12 1468 1822.29L1468 1478.71C1468 1383.88 1544.88 1307 1639.71 1307Z" fill="#D9D9D9" fill-rule="evenodd"/><path d="M2244 1478.71C2244 1383.88 2320.88 1307 2415.71 1307L2760.29 1307C2855.12 1307 2932 1383.88 2932 1478.71L2932 1822.29C2932 1917.12 2855.12 1994 2760.29 1994L2415.71 1994C2320.88 1994 2244 1917.12 2244 1822.29Z" fill="#D9D9D9" fill-rule="evenodd"/><path d="M1468 652.709C1468 557.877 1544.88 481 1639.71 481L1984.29 481C2079.12 481 2156 557.877 2156 652.709L2156 996.291C2156 1091.12 2079.12 1168 1984.29 1168L1639.71 1168C1544.88 1168 1468 1091.12 1468 996.291Z" fill="#00DE55" fill-rule="evenodd"/><path d="M2244 652.709C2244 557.877 2320.88 481 2415.71 481L2760.29 481C2855.12 481 2932 557.877 2932 652.709L2932 996.291C2932 1091.12 2855.12 1168 2760.29 1168L2415.71 1168C2320.88 1168 2244 1091.12 2244 996.291Z" fill="#FFF137" fill-rule="evenodd"/><path d="M1984.04 1256C2079.01 1256 2156 1332.99 2156 1427.96L2156 1772.04C2156 1867.01 2079.01 1944 1984.04 1944L1639.96 1944C1544.99 1944 1468 1867.01 1468 1772.04L1468 1427.96C1468 1332.99 1544.99 1256 1639.96 1256Z" fill="#FFFFFF" fill-rule="evenodd"/><path d="M2244 1427.96C2244 1332.99 2320.99 1256 2415.96 1256L2760.04 1256C2855.01 1256 2932 1332.99 2932 1427.96L2932 1772.04C2932 1867.01 2855.01 1944 2760.04 1944L2415.96 1944C2320.99 1944 2244 1867.01 2244 1772.04Z" fill="#FB3333" fill-rule="evenodd"/></g></svg>